<?xml version="1.0" encoding="utf-8" ?>
<svg xmlns="http://www.w3.org/2000/svg" xmlns:xlink="http://www.w3.org/1999/xlink" width="512" height="512">
	<path fill="#FF5C5C" transform="scale(0.5 0.5)" d="M676.543 182.828C713.411 140.192 758.35 105.288 804.771 73.7489C824.138 60.5908 843.587 47.7649 863.713 35.7938C871.563 31.1241 879.446 26.5182 887.354 21.9466C889.295 20.8243 891.618 18.821 893.701 18.1381C900.513 39.9958 908.841 61.2435 914.325 83.5242C919.152 103.137 923.095 123.802 924.997 143.895C926.888 163.872 926.841 184.203 926.288 204.25C925.537 231.513 922.994 258.601 916.725 285.202C911.158 308.827 902.584 331.932 893.609 354.437C891.213 353.899 885.951 343.735 884.373 341.283C879.733 334.073 874.324 327.376 869.108 320.583C860.74 309.686 852.108 298.807 842.76 288.73C804.415 247.393 756.986 216.57 705.372 194.409C695.997 190.384 686.302 185.783 676.543 182.828Z"/>
	<defs>
		<linearGradient id="gradient_0" gradientUnits="userSpaceOnUse" x1="698.05103" y1="982.125" x2="368.341" y2="464.64999">
			<stop offset="0" stop-color="#B9B8B8"/>
			<stop offset="1" stop-color="white"/>
		</linearGradient>
	</defs>
	<path fill="url(#gradient_0)" transform="scale(0.5 0.5)" d="M193.162 598.284C197.835 596.634 202.878 595.77 207.709 594.688C214.308 593.211 220.845 591.696 227.5 590.466C287.548 579.371 352.464 578.318 411.483 595.606C433.568 602.076 454.799 611.918 477.25 616.985C487.239 619.239 498.01 620.252 508.25 620.475C520.006 620.732 532.069 620.458 543.65 618.181C568.417 613.313 591.45 601.398 615.697 594.582C678.055 577.053 745.985 579.408 808.9 592.537C840.257 599.081 871.065 608.306 900.03 622.135C910.525 627.146 920.886 632.845 930.699 639.073C933.374 640.77 936.736 642.512 939.026 644.674C944.353 647.659 949.427 651.553 954.309 655.219C958.159 658.111 962.376 661.089 965.802 664.466C963.049 680.461 958.228 696.604 953.131 712.006C938.086 757.479 915.673 798.914 886.016 836.538C881.203 842.644 876.449 848.996 871.265 854.789C865.363 861.384 858.768 867.428 852.38 873.547C837.056 888.226 821.246 902.252 803.91 914.547C776.805 933.768 747.366 950.237 716.859 963.402C703.415 969.203 689.596 974.116 675.763 978.891C630.478 994.525 582.494 1005.06 534.574 1007.76C527.214 1008.17 519.749 1007.97 512.377 1007.96C488.163 1007.94 463.659 1006.27 439.774 1002.14L439.115 1002.02C430.128 1001.48 420.308 999.049 411.454 997.209C384.587 991.625 358.722 983.028 333.13 973.25C317.368 967.227 301.859 961.151 286.616 953.868C242.08 932.589 202.149 902.977 167.477 868.02C158.895 859.367 150.096 850.862 142.227 841.546C129.027 825.917 118.24 809.09 106.95 792.156L103.129 785.78L102.002 783.497C101.432 782.332 100.682 781.372 100.113 780.233L99.755 779.5L98.5025 777.497C98.0913 776.568 97.9984 775.814 97.363 774.967L97.0025 774.497C96.1846 772.86 94.671 770.49 94.3317 768.78L94.255 768.25L93.755 767.75L93.875 766.125L87.75 753.5C87.4499 752.689 87.3912 752.119 86.9609 751.32C86.1208 749.76 85.0456 747.706 84.6172 745.992C84.4332 745.256 84.58 745.651 84.1953 744.805L83.5 743.25L83 742C82.2002 740.278 81.2425 738.329 80.75 736.5C79.986 733.662 78.4134 731.037 77.4844 728.25L77.25 727.5C76.7593 725.997 76.0298 724.364 75.625 722.875C75.3943 722.026 75.5943 721.649 75.1484 720.758C74.5348 719.531 74.3329 718.383 73.875 717.125C73.5205 716.151 73.3406 715.241 73.0156 714.266C71.5554 709.885 70.131 705.521 68.875 701.125C68.7329 700.628 68.4764 700.163 68.375 699.656L67.875 697.625C67.3806 696.291 67.5907 697.235 67.375 696.156L66.875 694.125C66.4496 692.977 66.3828 691.863 66 690.75C65.6718 689.796 65.64 689.053 65.375 688.125C65.0699 687.057 64.8539 685.779 64.5 684.75C64.1718 683.796 64.14 683.053 63.875 682.125C63.5699 681.057 63.3539 679.779 63 678.75C62.6718 677.796 62.64 677.053 62.375 676.125C62.0699 675.057 61.8539 673.779 61.5 672.75C61.1599 671.761 61.2422 671.184 61 670.25C60.7779 669.393 60.712 668.568 60.5 667.75C60.0859 666.153 60.0434 667.608 60.1616 666.008C60.2441 664.89 62.9288 662.036 63.9975 661.497C65.1014 660.941 64.4315 661.592 65.153 660.878C66.586 659.458 68.2736 657.721 69.93 656.613L70.5 656.245L71.9975 654.997L72.75 654.745L73.875 653.497C74.6825 652.91 75.6516 652.362 76.5 651.745L77.245 651.25L84.4975 645.997C85.2912 645.541 85.9432 645.303 86.677 644.716L87.245 644.25C87.8497 643.887 88.4029 643.685 89 643.245C90.0938 642.44 91.3275 641.685 92.4975 640.997C93.3052 640.523 93.9004 640.391 94.5939 639.7L95 639.25L95.75 639.245C96.2289 638.686 96.5335 638.46 97.2095 638.121C98.1642 637.643 99.086 637.201 99.9769 636.605L101.245 635.75C101.96 635.364 102.564 635.223 103.282 634.745L104.75 633.745C106.102 633.013 108.132 631.455 109.499 631.109C110.227 630.924 110.85 630.634 111.5 630.245L115 628.245C116.369 627.444 117.905 626.616 119.375 625.997L120 625.745C120.78 625.249 121.296 625.16 122 624.745C123.624 623.788 121.96 624.356 123.374 623.927L124 623.745C125.293 623.106 126.762 622.483 128 621.745C128.927 621.192 129.578 621.17 130.5 620.745L131.245 620.25L131.75 620.245C132.459 619.752 133.163 619.259 133.998 618.997L135 618.745C136.475 617.838 135.081 618.321 136.327 617.943C137.433 617.607 138.971 617.017 139.998 616.497C140.535 616.226 140.934 616 141.5 615.745C143.046 615.049 144.89 614.019 146.514 613.608L146.998 613.497L148.25 613L149.5 612.745C151.734 611.706 148.837 612.698 150.998 611.997L152.498 611.497L154 610.75C156.279 610.205 153.051 611.483 155.577 610.402L157.263 609.732L166.25 606.745L170.498 605.497C171.668 605.07 173.041 605.063 174.078 604.418L174.5 604.122L175.5 604.245C176.368 603.666 175.986 603.788 176.827 603.621C177.779 603.432 177.265 603.585 178.278 603.248L178.998 602.997L179.75 602.745C180.481 602.495 181.16 602.257 181.92 602.106L182.498 601.997L183.25 601.745C183.94 601.558 184.585 601.479 185.278 601.248L186.75 600.745C187.783 600.465 188.943 600.11 189.998 599.997C191.289 599.859 191.809 599.392 192.788 598.595L193.162 598.284Z"/>
	<path fill="#171718" transform="scale(0.5 0.5)" d="M500.176 690.208C527.275 688.346 550.623 694.307 574.078 707.856C580.005 711.28 586.542 715.045 591.72 719.536C587.919 726.356 582.474 732.08 577.442 738C560.541 757.885 540.438 779.133 514.945 787.28L514.472 810.202C514.312 812.724 514.643 817.523 513.25 819.476L511.927 819.25C509.455 815.691 510.218 797.79 510.105 792.762C510.067 791.09 510.397 787.935 509.5 786.561L508 786.41C504.706 785.955 501.291 784.185 498.32 782.746C484.213 775.915 472.635 765.07 461.691 754.061C450.911 743.218 440.694 731.823 431.658 719.474C445.795 709.603 460.092 700.05 476.666 694.69C484.34 692.208 492.158 690.911 500.176 690.208Z"/>
	<path fill="#FF926A" transform="scale(0.5 0.5)" d="M193.162 598.284C187.058 599.107 180.568 601.521 174.655 603.241C148.268 610.917 123.756 621.586 99.9782 635.377C85.1734 643.964 71.1222 653.288 58.8219 665.279L56.3048 652.212C49.6993 612.471 49.1295 570.997 55.7047 531.22C59.3654 509.074 66.0291 486.885 73.6985 465.814C88.0364 426.421 107.106 388.994 131.468 354.837L120.062 327.501C103.804 286.637 98.0953 240.8 97.3847 197.057C97.1344 181.648 97.2486 166.123 98.6172 150.764C100.674 127.678 105.143 104.967 110.702 82.4922C116.163 60.4079 122.58 38.3348 131.605 17.4132C150.703 29.77 170.386 41.1176 189.5 53.4583C220.837 73.6906 252.143 95.0639 281.016 118.723C304.921 138.312 327.822 160.241 348.779 182.955L351.87 181.518C381.781 169.332 413.636 160.012 445.5 154.882C523.081 142.391 604.173 152.418 676.543 182.828C686.302 185.783 695.997 190.384 705.372 194.409C756.986 216.57 804.415 247.393 842.76 288.73C852.108 298.807 860.74 309.686 869.108 320.583C874.324 327.376 879.733 334.073 884.373 341.283C885.951 343.735 891.213 353.899 893.609 354.437C907.596 376.822 921.259 399.101 932.902 422.844C943.326 444.099 952.725 466.865 959.247 489.627C975.413 546.048 976.597 606.93 965.802 664.466C962.376 661.089 958.159 658.111 954.309 655.219C949.427 651.553 944.353 647.659 939.026 644.674C936.736 642.512 933.374 640.77 930.699 639.073C920.886 632.845 910.525 627.146 900.03 622.135C871.065 608.306 840.257 599.081 808.9 592.537C745.985 579.408 678.055 577.053 615.697 594.582C591.45 601.398 568.417 613.313 543.65 618.181C532.069 620.458 520.006 620.732 508.25 620.475C498.01 620.252 487.239 619.239 477.25 616.985C454.799 611.918 433.568 602.076 411.483 595.606C352.464 578.318 287.548 579.371 227.5 590.466C220.845 591.696 214.308 593.211 207.709 594.688C202.878 595.77 197.835 596.634 193.162 598.284Z"/>
	<path fill="#3E3D3E" transform="scale(0.5 0.5)" d="M329.652 447.167C343.473 445.908 354.87 448.721 366.135 456.941C377.014 464.88 383.229 477.872 385.22 490.945C386.978 502.489 382.572 516.272 375.618 525.49C367.152 536.712 356.615 542.342 342.787 544.27C339.134 544.808 334.171 544.772 330.514 544.224C322.289 542.991 314.636 540.908 307.724 536.081C297.494 528.936 289.975 517.472 287.981 505.132C285.755 491.349 287.994 477.01 296.37 465.625C304.685 454.322 316.132 449.309 329.652 447.167Z"/>
	<path fill="#3E3D3E" transform="scale(0.5 0.5)" d="M687.044 446.708L687.59 446.661C699.81 446.038 712.136 450.736 721.122 458.943C731.018 467.981 736.546 480.451 737.048 493.822C737.542 506.946 732.313 520.754 723.351 530.364C714.498 539.857 701.759 544.206 689.049 544.692C676.488 544.421 665.64 541.545 655.859 533.347C646.027 525.108 639.972 513.158 638.971 500.408C637.963 487.559 642.05 473.24 650.508 463.39C659.827 452.537 673.131 447.82 687.044 446.708Z"/>
</svg>
